<svg xmlns="http://www.w3.org/2000/svg" viewBox="0 0 64 64">
  <rect width="64" height="64" rx="14" fill="#c4633f"/>
  <circle cx="32" cy="22" r="8" fill="#fff" opacity=".95"/>
  <line x1="32" y1="9" x2="32" y2="6" stroke="#fff" stroke-width="2.5" stroke-linecap="round"/>
  <line x1="32" y1="38" x2="32" y2="35" stroke="#fff" stroke-width="2.5" stroke-linecap="round"/>
  <line x1="19" y1="22" x2="16" y2="22" stroke="#fff" stroke-width="2.5" stroke-linecap="round"/>
  <line x1="48" y1="22" x2="45" y2="22" stroke="#fff" stroke-width="2.5" stroke-linecap="round"/>
  <line x1="23" y1="13" x2="21" y2="11" stroke="#fff" stroke-width="2.5" stroke-linecap="round"/>
  <line x1="43" y1="33" x2="41" y2="31" stroke="#fff" stroke-width="2.5" stroke-linecap="round"/>
  <line x1="41" y1="13" x2="43" y2="11" stroke="#fff" stroke-width="2.5" stroke-linecap="round"/>
  <line x1="21" y1="33" x2="23" y2="31" stroke="#fff" stroke-width="2.5" stroke-linecap="round"/>
  <path d="M10 50 Q18 44 26 50 Q34 56 42 50 Q50 44 58 50" stroke="#fff" stroke-width="3" fill="none" stroke-linecap="round" opacity=".85"/>
  <path d="M10 57 Q18 51 26 57 Q34 63 42 57 Q50 51 58 57" stroke="#fff" stroke-width="2" fill="none" stroke-linecap="round" opacity=".5"/>
</svg>
